
<svg width="21" height="21" viewBox="0 0 21 21" fill="none" xmlns="http://www.w3.org/2000/svg">
<path fill-rule="evenodd" clip-rule="evenodd" d="M14.8735 12.2352C14.6258 12.1112 13.4079 11.5121 13.1808 11.4295C12.9538 11.3469 12.7887 11.3056 12.6235 11.5535C12.4584 11.8014 11.9837 12.3591 11.8392 12.5244C11.6947 12.6897 11.5502 12.7104 11.3025 12.5864C11.0548 12.4625 10.2567 12.2009 9.31052 11.3573C8.57415 10.7007 8.07701 9.88972 7.93248 9.64182C7.78801 9.39391 7.9171 9.25992 8.04115 9.13644C8.15253 9.02554 8.28881 8.84725 8.41267 8.70263C8.53653 8.55802 8.57781 8.45473 8.66038 8.28949C8.74295 8.12421 8.70167 7.97959 8.63972 7.85564C8.57781 7.73169 8.08243 6.51284 7.87601 6.01703C7.67496 5.53418 7.47072 5.59951 7.31868 5.59194C7.17435 5.58475 7.00906 5.58323 6.84392 5.58323C6.67878 5.58323 6.41045 5.64523 6.18335 5.89308C5.95631 6.14099 5.31641 6.74012 5.31641 7.95893C5.31641 9.17777 6.20402 10.3553 6.32788 10.5206C6.45173 10.6859 8.07458 13.1871 10.5594 14.2597C11.1504 14.5148 11.6118 14.6672 11.9715 14.7814C12.565 14.9698 13.105 14.9432 13.5318 14.8794C14.0077 14.8084 14.9973 14.2804 15.2038 13.7019C15.4101 13.1235 15.4101 12.6277 15.3482 12.5244C15.2863 12.4211 15.1212 12.3591 14.8735 12.2352ZM10.3494 18.4044H10.346C8.86747 18.4038 7.41729 18.0067 6.1522 17.2562L5.8513 17.0777L2.7327 17.8955L3.56513 14.8559L3.36918 14.5442C2.54437 13.2327 2.10876 11.7169 2.10938 10.1605C2.11119 5.61878 5.80759 1.92381 10.3527 1.92381C12.5535 1.92467 14.6223 2.78261 16.178 4.33955C17.7337 5.89654 18.59 7.96615 18.5892 10.1671C18.5873 14.7091 14.891 18.4044 10.3494 18.4044ZM17.3651 3.15646C15.4934 1.28318 13.0043 0.251047 10.3523 0.25C4.88806 0.25 0.440801 4.69554 0.438611 10.1598C0.437897 11.9065 0.89437 13.6116 1.76189 15.1144L0.355469 20.25L5.61086 18.8719C7.05885 19.6614 8.68912 20.0775 10.3484 20.0782H10.3524H10.3524C15.8162 20.0782 20.2638 15.6321 20.266 10.1677C20.267 7.51966 19.2369 5.02968 17.3651 3.15646Z" fill="#213529"/>
<path d="M13.1808 11.4295L13.0954 11.6645L13.0953 11.6644L13.1808 11.4295ZM11.8392 12.5244L11.651 12.3599L11.651 12.3599L11.8392 12.5244ZM11.3025 12.5864L11.4143 12.3628L11.4144 12.3628L11.3025 12.5864ZM9.31052 11.3573L9.4769 11.1707L9.4769 11.1707L9.31052 11.3573ZM7.93248 9.64182L7.71651 9.76773L7.71649 9.7677L7.93248 9.64182ZM8.04115 9.13644L8.21755 9.3136L8.21752 9.31363L8.04115 9.13644ZM8.66038 8.28949L8.88403 8.40122L8.88402 8.40125L8.66038 8.28949ZM8.63972 7.85564L8.41609 7.96741L8.41606 7.96734L8.63972 7.85564ZM7.87601 6.01703L8.1068 5.92094L8.1068 5.92094L7.87601 6.01703ZM7.31868 5.59194L7.30624 5.84163L7.30624 5.84163L7.31868 5.59194ZM6.18335 5.89308L5.99899 5.72423L5.99902 5.72419L6.18335 5.89308ZM10.5594 14.2597L10.6585 14.0302L10.6585 14.0302L10.5594 14.2597ZM11.9715 14.7814L12.0472 14.5431L12.0472 14.5431L11.9715 14.7814ZM13.5318 14.8794L13.4948 14.6322L13.4948 14.6322L13.5318 14.8794ZM15.2038 13.7019L15.4392 13.7859L15.4392 13.786L15.2038 13.7019ZM10.346 18.4044V18.6544H10.3459L10.346 18.4044ZM6.1522 17.2562L6.02465 17.4712L6.02462 17.4712L6.1522 17.2562ZM5.8513 17.0777L5.78788 16.8358L5.889 16.8093L5.97889 16.8627L5.8513 17.0777ZM2.7327 17.8955L2.79612 18.1373L2.37719 18.2472L2.49158 17.8295L2.7327 17.8955ZM3.56513 14.8559L3.77676 14.7228L3.83529 14.8159L3.80625 14.9219L3.56513 14.8559ZM3.36918 14.5442L3.5808 14.4112L3.58081 14.4112L3.36918 14.5442ZM2.10938 10.1605L1.85938 10.1604L2.10938 10.1605ZM10.3527 1.92381V1.67381H10.3527L10.3527 1.92381ZM16.178 4.33955L16.3549 4.16285L16.3549 4.16285L16.178 4.33955ZM18.5892 10.1671L18.8392 10.1672V10.1672L18.5892 10.1671ZM10.3523 0.25V0H10.3524L10.3523 0.25ZM0.438611 10.1598L0.688611 10.1599V10.1599L0.438611 10.1598ZM1.76189 15.1144L1.9784 14.9894L2.03057 15.0798L2.00301 15.1805L1.76189 15.1144ZM0.355469 20.25L0.418881 20.4918L-4.58062e-05 20.6017L0.114347 20.184L0.355469 20.25ZM5.61086 18.8719L5.54745 18.6301L5.64342 18.6049L5.73054 18.6524L5.61086 18.8719ZM10.3484 20.0782V20.3282L10.3482 20.3282L10.3484 20.0782ZM20.266 10.1677L20.516 10.1678V10.1678L20.266 10.1677ZM14.8735 12.2352L14.7616 12.4588C14.639 12.3974 14.2736 12.2171 13.9108 12.042C13.5399 11.863 13.1938 11.7003 13.0954 11.6645L13.1808 11.4295L13.2663 11.1946C13.395 11.2414 13.7713 11.4195 14.1281 11.5917C14.4928 11.7677 14.8603 11.949 14.9854 12.0116L14.8735 12.2352ZM13.1808 11.4295L13.0953 11.6644C13.0395 11.6441 12.9988 11.6306 12.9646 11.6227C12.9312 11.6149 12.9146 11.6151 12.9074 11.6159C12.9033 11.6164 12.8999 11.617 12.8921 11.6224C12.882 11.6296 12.861 11.648 12.8316 11.6921L12.6235 11.5535L12.4155 11.4149C12.5249 11.2506 12.6654 11.1404 12.8506 11.1192C13.0081 11.1011 13.1604 11.156 13.2663 11.1946L13.1808 11.4295ZM12.6235 11.5535L12.8316 11.6921C12.6556 11.9563 12.169 12.527 12.0274 12.689L11.8392 12.5244L11.651 12.3599C11.7984 12.1913 12.2612 11.6464 12.4155 11.4149L12.6235 11.5535ZM11.8392 12.5244L12.0274 12.689C11.9313 12.7989 11.8072 12.8917 11.6397 12.912C11.4824 12.9311 11.3309 12.8802 11.1906 12.8099L11.3025 12.5864L11.4144 12.3628C11.5218 12.4166 11.5665 12.4173 11.5794 12.4157C11.5822 12.4153 11.6026 12.4152 11.651 12.3599L11.8392 12.5244ZM11.3025 12.5864L11.1907 12.81C10.9674 12.6983 10.1227 12.4164 9.14414 11.5439L9.31052 11.3573L9.4769 11.1707C10.3906 11.9855 11.1422 12.2267 11.4143 12.3628L11.3025 12.5864ZM9.31052 11.3573L9.14415 11.5439C8.37811 10.8609 7.86516 10.0227 7.71651 9.76773L7.93248 9.64182L8.14846 9.51591C8.28885 9.75672 8.77018 10.5406 9.4769 11.1707L9.31052 11.3573ZM7.93248 9.64182L7.71649 9.7677C7.61443 9.59257 7.59098 9.41887 7.6518 9.25533C7.70373 9.11569 7.80943 9.01435 7.86478 8.95926L8.04115 9.13644L8.21752 9.31363C8.18573 9.34526 8.16364 9.36788 8.14604 9.38968C8.12916 9.41058 8.12285 9.42314 8.12044 9.4296C8.11891 9.43372 8.11816 9.43692 8.11907 9.44409C8.12022 9.45317 8.12529 9.47615 8.14848 9.51594L7.93248 9.64182ZM8.04115 9.13644L7.86475 8.95929C7.96749 8.85699 8.08286 8.7034 8.22279 8.54001L8.41267 8.70263L8.60255 8.86525C8.49476 8.99111 8.33757 9.19409 8.21755 9.3136L8.04115 9.13644ZM8.41267 8.70263L8.22279 8.54001C8.32193 8.42425 8.34848 8.35439 8.43675 8.17774L8.66038 8.28949L8.88402 8.40125C8.80714 8.55508 8.75112 8.69178 8.60255 8.86525L8.41267 8.70263ZM8.66038 8.28949L8.43674 8.17777C8.45585 8.13951 8.45851 8.11026 8.45567 8.08369C8.45236 8.05284 8.44035 8.01595 8.41609 7.96741L8.63972 7.85564L8.86334 7.74387C8.94084 7.89892 9.01757 8.1339 8.88403 8.40122L8.66038 8.28949ZM8.63972 7.85564L8.41606 7.96734C8.37977 7.89468 8.23508 7.54541 8.08089 7.17098C7.9231 6.78781 7.74819 6.36046 7.64521 6.11312L7.87601 6.01703L8.1068 5.92094C8.21025 6.16941 8.38624 6.59939 8.54322 6.98059C8.7038 7.37052 8.83776 7.69265 8.86337 7.74394L8.63972 7.85564ZM7.87601 6.01703L7.64521 6.11313C7.55564 5.89799 7.4871 5.85935 7.47218 5.8523C7.46295 5.84794 7.4512 5.8446 7.42743 5.84325C7.4143 5.8425 7.40018 5.84245 7.37948 5.84257C7.3614 5.84268 7.33372 5.843 7.30624 5.84163L7.31868 5.59194L7.33111 5.34225C7.34578 5.34298 7.53082 5.32702 7.68575 5.40021C7.86122 5.4831 7.99533 5.65322 8.1068 5.92094L7.87601 6.01703ZM7.31868 5.59194L7.30624 5.84163C7.16848 5.83477 7.00841 5.83323 6.84392 5.83323V5.58323V5.33323C7.00971 5.33323 7.18021 5.33473 7.33112 5.34225L7.31868 5.59194ZM6.84392 5.58323V5.83323C6.73611 5.83323 6.53943 5.87451 6.36768 6.06197L6.18335 5.89308L5.99902 5.72419C6.28146 5.41594 6.62145 5.33323 6.84392 5.33323V5.58323ZM6.18335 5.89308L6.36771 6.06193C6.14184 6.30855 5.56641 6.8444 5.56641 7.95893H5.31641H5.06641C5.06641 6.63585 5.77077 5.97342 5.99899 5.72423L6.18335 5.89308ZM5.31641 7.95893H5.56641C5.56641 8.51208 5.76933 9.07022 5.99859 9.52163C6.22607 9.96951 6.46861 10.2915 6.52794 10.3707L6.32788 10.5206L6.12781 10.6705C6.06328 10.5844 5.80009 10.235 5.5528 9.74804C5.30729 9.26466 5.06641 8.62462 5.06641 7.95893H5.31641ZM6.32788 10.5206L6.52794 10.3707C6.66519 10.5538 8.2476 12.9895 10.6585 14.0302L10.5594 14.2597L10.4603 14.4892C7.90155 13.3847 6.23827 10.8179 6.12781 10.6705L6.32788 10.5206ZM10.5594 14.2597L10.6585 14.0302C11.2386 14.2806 11.6911 14.43 12.0472 14.5431L11.9715 14.7814L11.8959 15.0196C11.5326 14.9043 11.0623 14.7491 10.4603 14.4892L10.5594 14.2597ZM11.9715 14.7814L12.0472 14.5431C12.5909 14.7157 13.0888 14.6928 13.4948 14.6322L13.5318 14.8794L13.5687 15.1267C13.1211 15.1936 12.5391 15.2239 11.8959 15.0196L11.9715 14.7814ZM13.5318 14.8794L13.4948 14.6322C13.6859 14.6036 14.0187 14.4725 14.3339 14.2704C14.6552 14.0646 14.894 13.826 14.9683 13.6179L15.2038 13.7019L15.4392 13.786C15.3071 14.1563 14.9478 14.4709 14.6037 14.6914C14.2536 14.9158 13.8535 15.0842 13.5687 15.1267L13.5318 14.8794ZM15.2038 13.7019L14.9683 13.6179C15.0642 13.3492 15.1113 13.1017 15.1275 12.9135C15.1357 12.8191 15.1357 12.7435 15.1316 12.6901C15.1263 12.623 15.1168 12.6246 15.1338 12.6529L15.3482 12.5244L15.5627 12.3959C15.6106 12.4759 15.6243 12.5782 15.63 12.6511C15.6368 12.7379 15.6356 12.8417 15.6257 12.9565C15.6058 13.1867 15.5497 13.4763 15.4392 13.7859L15.2038 13.7019ZM15.3482 12.5244L15.1338 12.6529C15.1396 12.6626 15.1353 12.6479 15.0602 12.6067C14.9846 12.5652 14.8999 12.528 14.7616 12.4588L14.8735 12.2352L14.9854 12.0116C15.0948 12.0664 15.2165 12.1221 15.3008 12.1684C15.3857 12.215 15.495 12.283 15.5627 12.3959L15.3482 12.5244ZM10.3494 18.4044V18.6544H10.346V18.4044V18.1544H10.3494V18.4044ZM10.346 18.4044L10.3459 18.6544C8.82276 18.6538 7.32852 18.2448 6.02465 17.4712L6.1522 17.2562L6.27976 17.0412C7.50606 17.7687 8.91218 18.1538 10.3461 18.1544L10.346 18.4044ZM6.1522 17.2562L6.02462 17.4712L5.72371 17.2926L5.8513 17.0777L5.97889 16.8627L6.27979 17.0412L6.1522 17.2562ZM5.8513 17.0777L5.91472 17.3195L2.79612 18.1373L2.7327 17.8955L2.66929 17.6537L5.78788 16.8358L5.8513 17.0777ZM2.7327 17.8955L2.49158 17.8295L3.32401 14.7898L3.56513 14.8559L3.80625 14.9219L2.97383 17.9615L2.7327 17.8955ZM3.56513 14.8559L3.35349 14.9889L3.15754 14.6773L3.36918 14.5442L3.58081 14.4112L3.77676 14.7228L3.56513 14.8559ZM3.36918 14.5442L3.15755 14.6773C2.30753 13.3257 1.85874 11.7637 1.85938 10.1604L2.10938 10.1605L2.35938 10.1606C2.35878 11.6701 2.78121 13.1397 3.5808 14.4112L3.36918 14.5442ZM2.10938 10.1605L1.85938 10.1604C1.86124 5.48059 5.66962 1.67381 10.3527 1.67381V1.92381V2.17381C5.94555 2.17381 2.36113 5.75698 2.35938 10.1606L2.10938 10.1605ZM10.3527 1.92381L10.3527 1.67381C12.6199 1.67469 14.7523 2.55901 16.3549 4.16285L16.178 4.33955L16.0012 4.51626C14.4923 3.00622 12.4871 2.17464 10.3526 2.17381L10.3527 1.92381ZM16.178 4.33955L16.3549 4.16285C17.9575 5.76674 18.84 7.89994 18.8392 10.1672L18.5892 10.1671L18.3392 10.167C18.34 8.03235 17.51 6.02634 16.0012 4.51626L16.178 4.33955ZM18.5892 10.1671L18.8392 10.1672C18.8372 14.8473 15.029 18.6544 10.3494 18.6544V18.4044V18.1544C14.7529 18.1544 18.3374 14.571 18.3392 10.167L18.5892 10.1671ZM17.3651 3.15646L17.1883 3.33316C15.3635 1.50683 12.9379 0.50102 10.3522 0.5L10.3523 0.25L10.3524 0C13.0706 0.00107384 15.6234 1.05953 17.542 2.97975L17.3651 3.15646ZM10.3523 0.25V0.5C5.02609 0.5 0.690746 4.83367 0.688611 10.1599L0.438611 10.1598L0.188611 10.1597C0.190857 4.55741 4.75002 0 10.3523 0V0.25ZM0.438611 10.1598L0.688611 10.1599C0.687915 11.8629 1.13291 13.5247 1.9784 14.9894L1.76189 15.1144L1.54537 15.2394C0.655829 13.6984 0.187879 11.9502 0.188611 10.1597L0.438611 10.1598ZM1.76189 15.1144L2.00301 15.1805L0.59659 20.316L0.355469 20.25L0.114347 20.184L1.52077 15.0484L1.76189 15.1144ZM0.355469 20.25L0.292057 20.0082L5.54745 18.6301L5.61086 18.8719L5.67427 19.1137L0.418881 20.4918L0.355469 20.25ZM5.61086 18.8719L5.73054 18.6524C7.14174 19.4219 8.73089 19.8275 10.3485 19.8282L10.3484 20.0782L10.3482 20.3282C8.64736 20.3275 6.97596 19.901 5.49118 19.0914L5.61086 18.8719ZM10.3484 20.0782V19.8282H10.3524V20.0782V20.3282H10.3484V20.0782ZM10.3524 20.0782V19.8282H10.3524V20.0782V20.3282H10.3524V20.0782ZM10.3524 20.0782V19.8282C15.6781 19.8282 20.0139 15.494 20.016 10.1676L20.266 10.1677L20.516 10.1678C20.5137 15.7702 15.9542 20.3282 10.3524 20.3282V20.0782ZM20.266 10.1677L20.016 10.1676C20.017 7.58587 19.0131 5.15948 17.1883 3.33316L17.3651 3.15646L17.542 2.97975C19.4606 4.89988 20.5171 7.45346 20.516 10.1678L20.266 10.1677Z" fill="white"/>
</svg>
